<svg width="411" height="343" viewBox="0 0 411 343" fill="none" xmlns="http://www.w3.org/2000/svg">
<g opacity="0.1">
<path fill-rule="evenodd" clip-rule="evenodd" d="M-458.057 527.908C-504.874 336.559 -387.722 143.513 -196.373 96.696C-5.02363 49.8795 188.023 167.031 234.845 358.405C281.662 549.755 164.51 742.801 -26.8391 789.617C-27.7784 789.847 -28.7175 790.043 -29.6577 790.238C-30.3647 790.385 -31.0724 790.533 -31.7812 790.695C-31.9901 790.759 -32.197 790.825 -32.4031 790.891C-32.9965 791.08 -33.5834 791.268 -34.194 791.417L-303.704 857.357C-328.186 863.347 -353.136 848.206 -359.126 823.723L-360.077 819.834C-363.194 807.094 -360.571 794.271 -353.909 784.027L-353.958 784.039L-319.587 732.928L-318.569 733.525C-385.804 685.632 -436.897 614.396 -458.057 527.908ZM-243.709 455.444L17.9689 437.915C26.1127 437.37 34.4592 440.232 40.8923 445.254C46.6852 450.32 49.9181 458.258 49.7977 466.447C49.6162 544.764 -16.8005 610.488 -101.542 616.165C-186.258 621.84 -260.803 566.227 -271.454 488.635C-272 480.492 -269.784 472.857 -264.763 466.399C-259.744 459.914 -251.852 455.99 -243.709 455.444Z" fill="white"/>
<path d="M199.611 32.8442L169.41 103.587L272.274 240.23L348.663 230.739C369.041 228.213 375.665 212.699 363.328 196.292L236.861 28.2998C224.42 11.8803 207.732 13.9258 199.611 32.8442Z" fill="white"/>
</g>
</svg>
