<svg width="558" height="425" viewBox="0 0 558 425" fill="none" xmlns="http://www.w3.org/2000/svg">
<g opacity="0.1">
<path fill-rule="evenodd" clip-rule="evenodd" d="M907.006 -251.468C989.996 -72.8095 912.452 139.271 733.793 222.262C555.135 305.253 343.054 227.708 260.053 49.0264C177.062 -129.632 254.606 -341.713 433.265 -424.704C434.142 -425.111 435.025 -425.485 435.91 -425.859C436.575 -426.14 437.241 -426.421 437.905 -426.718C438.097 -426.822 438.287 -426.926 438.477 -427.031C439.022 -427.331 439.562 -427.629 440.132 -427.893L691.767 -544.783C714.626 -555.402 742.035 -545.38 752.654 -522.521L754.341 -518.89C759.866 -506.995 759.776 -493.906 755.224 -482.565L755.271 -482.587L731.449 -425.787L730.335 -426.175C805.572 -392.212 869.495 -332.22 907.006 -251.468ZM710.75 -138.861L457.423 -70.9824C449.539 -68.8699 440.796 -70.0614 433.512 -73.743C426.848 -77.5906 422.139 -84.7523 420.671 -92.8089C405.68 -169.678 458.11 -247.022 540.148 -269.004C622.161 -290.979 706.065 -250.857 731.542 -176.798C733.655 -168.914 732.96 -160.995 729.285 -153.686C725.617 -146.352 718.634 -140.974 710.75 -138.861Z" fill="white"/>
<path d="M357.674 361.599L373.602 286.346L246.221 172.214L173.116 196.319C153.613 202.745 150.12 219.248 165.401 232.955L322.009 373.272C337.396 386.971 353.371 381.732 357.674 361.599Z" fill="white"/>
</g>
</svg>
