<svg width="114" height="118" viewBox="0 0 114 118" fill="none" xmlns="http://www.w3.org/2000/svg">
<path fill-rule="evenodd" clip-rule="evenodd" d="M0.71661 72.8162C-3.79525 47.0065 13.4678 22.4292 39.2776 17.9173C65.0873 13.4054 89.6646 30.6685 94.177 56.4816C98.6889 82.2914 81.4258 106.869 55.6161 111.38C55.4894 111.403 55.363 111.42 55.2365 111.438C55.1414 111.451 55.0462 111.464 54.9507 111.479C54.9224 111.486 54.8944 111.493 54.8664 111.5C54.786 111.52 54.7064 111.54 54.624 111.554L18.2718 117.909C14.9695 118.486 11.7932 116.255 11.2159 112.953L11.1242 112.428C10.8238 110.71 11.2859 109.031 12.2611 107.731L12.2544 107.732L17.2701 101.255L17.3999 101.343C8.90311 94.3897 2.75591 84.4819 0.71661 72.8162ZM29.7994 65.1039H64.6818C65.7674 65.1039 66.8496 65.558 67.6587 66.2817C68.3824 67.0055 68.7409 68.0876 68.6521 69.1732C67.9318 79.5649 58.5335 87.6967 47.2372 87.6967C35.9442 87.6967 26.546 79.6537 25.8223 69.262C25.8223 68.1764 26.1841 67.183 26.9079 66.3705C27.6316 65.5546 28.7138 65.1039 29.7994 65.1039Z" fill="#FF5E16"/>
<path d="M92.3806 2.96446L87.7438 12.0841L100.18 31.1321L110.402 30.5517C113.128 30.3976 114.145 28.3977 112.654 26.1106L97.3644 2.69253C95.8592 0.402928 93.6264 0.526036 92.3806 2.96446Z" fill="#FF5E16"/>
</svg>
