<svg width="68" height="68" viewBox="0 0 68 68" fill="none" xmlns="http://www.w3.org/2000/svg">
<circle cx="34" cy="34" r="33.5" stroke="#DCDCDC"/>
<path d="M31.4557 22.9064C25.2422 23.9926 21.0863 29.9093 22.1725 36.1228C22.6635 38.9312 24.1433 41.3164 26.1888 42.9904L26.1576 42.9691L24.9501 44.5285L24.9517 44.5282C24.717 44.8412 24.6057 45.2453 24.678 45.659L24.7001 45.7852C24.8391 46.5802 25.6038 47.1173 26.3988 46.9784L35.1502 45.4485C35.1769 45.4438 35.2024 45.4369 35.2288 45.4306C35.2824 45.4221 35.3356 45.4161 35.389 45.4068C41.6025 44.3206 45.7584 38.4038 44.6722 32.1904C43.5859 25.9761 37.6691 21.8202 31.4557 22.9064Z" fill="#FF5E16"/>
<path d="M44.2403 21.7136L43.124 23.9091L46.1179 28.4947L48.5787 28.355C49.2351 28.3179 49.48 27.8364 49.1209 27.2858L45.4401 21.6482C45.0777 21.097 44.5402 21.1266 44.2403 21.7136Z" fill="#FF5E16"/>
</svg>
