<svg width="68" height="68" viewBox="0 0 68 68" fill="none" xmlns="http://www.w3.org/2000/svg">
<circle cx="34" cy="34" r="33.5" stroke="#DCDCDC"/>
<path d="M46.7807 25.1009C45.0947 24.3825 43.4074 24.1091 41.7209 24.1091C36.3673 24.1087 31.0141 26.8618 25.6605 26.8618C24.3179 26.8618 22.9761 26.6887 21.6335 26.256C21.4827 26.2074 21.3314 26.1845 21.1836 26.1845C20.4356 26.1845 19.7819 26.7726 19.7819 27.5891V41.5979C19.7819 42.1556 20.0961 42.6842 20.6007 42.8988C22.2868 43.6176 23.9741 43.8909 25.6605 43.8909C31.0141 43.8909 36.3678 41.1378 41.7214 41.1378C43.064 41.1378 44.4058 41.3109 45.7484 41.7437C45.8992 41.7922 46.0505 41.8152 46.1983 41.8152C46.9463 41.8152 47.6 41.227 47.6 40.4106V26.4021C47.5996 25.844 47.2854 25.3159 46.7807 25.1009ZM21.8682 28.5344C22.7427 28.757 23.6555 28.8687 24.5943 28.9287C24.3388 30.2265 23.2156 31.2045 21.8682 31.2045V28.5344ZM21.8682 41.1188V39.0091C23.3621 39.0091 24.5709 40.2132 24.6374 41.7202C23.6581 41.6403 22.7427 41.4416 21.8682 41.1188ZM33.6907 38.239C31.77 38.239 30.2135 36.3407 30.2135 34C30.2135 31.6589 31.7704 29.7611 33.6907 29.7611C35.611 29.7611 37.168 31.6589 37.168 34C37.168 36.3416 35.6106 38.239 33.6907 38.239ZM45.5133 39.4656C44.7518 39.2718 43.9611 39.1632 43.1522 39.093C43.4074 37.9414 44.3475 37.0671 45.5133 36.917V39.4656ZM45.5133 29.04C44.1706 28.8674 43.1288 27.7286 43.0875 26.3222C43.9368 26.418 44.7431 26.5973 45.5133 26.8812V29.04Z" fill="#FF5E16"/>
</svg>
