<svg width="35" height="44" viewBox="0 0 35 44" fill="none" xmlns="http://www.w3.org/2000/svg">
<path fill-rule="evenodd" clip-rule="evenodd" d="M18.7789 42.298L17.5 43.4147L16.2211 42.298C5.46643 32.9072 0 24.7076 0 17.5C0 7.29296 7.96649 0 17.5 0C27.0335 0 35 7.29296 35 17.5C35 24.7076 29.5336 32.9072 18.7789 42.298ZM3.88889 17.5C3.88889 23.0402 8.37397 30.0097 17.5 38.2344C26.626 30.0097 31.1111 23.0402 31.1111 17.5C31.1111 9.52117 24.9587 3.88889 17.5 3.88889C10.0413 3.88889 3.88889 9.52117 3.88889 17.5ZM17.5 7.77778C22.8694 7.77778 27.2222 12.1306 27.2222 17.5C27.2222 22.8694 22.8694 27.2222 17.5 27.2222C12.1306 27.2222 7.77778 22.8694 7.77778 17.5C7.77778 12.1306 12.1306 7.77778 17.5 7.77778ZM17.5 11.6667C14.2783 11.6667 11.6667 14.2783 11.6667 17.5C11.6667 20.7217 14.2783 23.3333 17.5 23.3333C20.7217 23.3333 23.3333 20.7217 23.3333 17.5C23.3333 14.2783 20.7217 11.6667 17.5 11.6667Z" fill="#FF5E16"/>
</svg>
