<svg version="1.2" xmlns="http://www.w3.org/2000/svg" viewBox="0 0 68 68" width="68" height="68">
	<title>Ellipse 52-svg</title>
	<style>
		.s0 { fill: none;stroke: #dcdcdc } 
		.s1 { fill: #ff5e16 } 
	</style>
	<path id="Layer" class="s0" d="m34 67.5c-18.5 0-33.5-15-33.5-33.5c0-18.5 15-33.5 33.5-33.5c18.5 0 33.5 15 33.5 33.5c0 18.5-15 33.5-33.5 33.5z" />
	<path id="Layer" fill-rule="evenodd" class="s1" d="m32.6 24.8q-0.2 0.2-0.4 0.2q-0.3 0-0.4-0.2c-0.3-0.3-0.3-0.6 0-0.9l1.7-1.7q0-0.1 0.1-0.1q0 0 0.1 0c0-0.1 0.1-0.1 0.2-0.1c0.1 0 0.2 0 0.3 0.1q0 0 0.1 0.1l1.8 1.7c0.2 0.3 0.2 0.6 0 0.9c-0.2 0.1-0.3 0.2-0.5 0.2c-0.1 0-0.3-0.1-0.4-0.2l-0.7-0.7v3.4c0 0.4-0.2 0.6-0.6 0.6c-0.4 0-0.6-0.2-0.6-0.6v-3.4zm14.2 5.2v14.8c0 0.3-0.3 0.6-0.6 0.6h-24.6c-0.4 0-0.6-0.3-0.6-0.6v-14.8c0-0.4 0.2-0.6 0.6-0.6h24.6c0.3 0 0.6 0.2 0.6 0.6zm-19.7 12.3c0-0.4-0.2-0.6-0.6-0.6h-1.8v-1.8c0-0.4-0.3-0.7-0.7-0.7c-0.3 0-0.6 0.3-0.6 0.7v2.4c0 0.4 0.3 0.6 0.6 0.6h2.5c0.4 0 0.6-0.2 0.6-0.6zm0-9.8c0-0.4-0.2-0.6-0.6-0.6h-2.5c-0.3 0-0.6 0.2-0.6 0.6v2.4c0 0.4 0.3 0.6 0.6 0.6c0.4 0 0.7-0.2 0.7-0.6v-1.8h1.8c0.4 0 0.6-0.3 0.6-0.6zm12.3 4.9c0-3.1-2.4-5.5-5.5-5.5c-3.1 0-5.5 2.4-5.5 5.5c0 3.1 2.4 5.5 5.5 5.5c3.1 0 5.5-2.4 5.5-5.5zm4.9 2.5c0-0.4-0.2-0.7-0.6-0.7c-0.3 0-0.6 0.3-0.6 0.7v1.8h-1.8c-0.4 0-0.7 0.2-0.7 0.6c0 0.4 0.3 0.6 0.7 0.6h2.4c0.4 0 0.6-0.2 0.6-0.6zm0-7.4c0-0.3-0.2-0.6-0.6-0.6h-2.4c-0.4 0-0.7 0.3-0.7 0.6c0 0.4 0.3 0.6 0.7 0.6h1.8v1.9c0 0.4 0.3 0.6 0.6 0.6c0.4 0 0.6-0.2 0.6-0.6zm-14.7 4.9c0-2.4 1.9-4.3 4.3-4.3c2.4 0 4.3 1.9 4.3 4.3c0 2.4-1.9 4.3-4.3 4.3c-2.4 0-4.3-1.9-4.3-4.3z" />
</svg>