<svg width="68" height="68" viewBox="0 0 68 68" fill="none" xmlns="http://www.w3.org/2000/svg">
<circle cx="34" cy="34" r="33.5" stroke="#DCDCDC"/>
<path d="M44.9526 26.2514C44.941 26.0599 44.8682 25.878 44.7458 25.7349C44.6234 25.5917 44.4585 25.4955 44.2775 25.4617C39.8365 24.6303 37.9826 24.0293 33.8383 22.0761C33.732 22.0259 33.6167 22 33.5 22C33.3833 22 33.268 22.0259 33.1617 22.0761C29.0174 24.0293 27.1635 24.6303 22.7225 25.4617C22.5415 25.4955 22.3766 25.5917 22.2542 25.7349C22.1318 25.878 22.059 26.0599 22.0474 26.2514C21.8497 29.5251 22.2712 32.5754 23.3016 35.3176C24.1454 37.5545 25.3942 39.6008 26.9797 41.3449C29.7249 44.3839 32.6395 45.7039 33.1955 45.9375C33.3931 46.0208 33.6141 46.0208 33.8116 45.9375C34.3677 45.7039 37.2823 44.3839 40.0275 41.3449C41.6104 39.6002 42.8567 37.5539 43.6984 35.3176C44.7288 32.5754 45.1503 29.5251 44.9526 26.2514ZM38.227 30.275L32.5384 37.1321C32.4652 37.2205 32.3755 37.2924 32.2748 37.3433C32.1741 37.3943 32.0644 37.4232 31.9526 37.4283H31.9187C31.7037 37.4284 31.4973 37.3405 31.3437 37.1835L28.8177 34.6014C28.7406 34.5226 28.6792 34.4287 28.6369 34.3252C28.5946 34.2216 28.5723 34.1104 28.5712 33.9978C28.569 33.7704 28.6534 33.5515 28.8059 33.3891C28.9584 33.2267 29.1665 33.1342 29.3844 33.1319C29.6023 33.1295 29.8121 33.2176 29.9677 33.3768L31.8674 35.3208L36.9861 29.1533C37.1286 28.9814 37.3308 28.8756 37.5481 28.8592C37.7654 28.8428 37.9801 28.9172 38.1448 29.066C38.3096 29.2147 38.411 29.4257 38.4267 29.6524C38.4423 29.8792 38.3711 30.1031 38.2285 30.275H38.227Z" fill="#FF5E16"/>
</svg>
