<svg width="455" height="121" viewBox="0 0 455 121" fill="none" xmlns="http://www.w3.org/2000/svg">
<path opacity="0.8" d="M188.637 4.09455C65.1185 25.6871 -17.498 143.308 4.09454 266.826C13.8541 322.655 43.2729 370.071 83.9362 403.348L83.3151 402.926L59.3114 433.925L59.3436 433.919C54.6762 440.142 52.4648 448.174 53.9024 456.398L54.3413 458.909C57.104 474.713 72.3052 485.39 88.1092 482.627L262.081 452.215C262.612 452.122 263.119 451.983 263.644 451.858C264.709 451.689 265.767 451.57 266.829 451.385C390.347 429.792 472.964 312.172 451.371 188.653C429.776 65.1185 312.156 -17.498 188.637 4.09455Z" fill="#FF5E16"/>
</svg>
