<svg width="400" height="189" viewBox="0 0 400 189" fill="none" xmlns="http://www.w3.org/2000/svg">
<path opacity="0.8" d="M93.6855 -237.857C0.517603 -179.233 -27.4816 -56.1965 31.143 36.9714C57.6405 79.0821 97.3118 107.82 141.416 121.33L140.771 121.194L131.579 154.361L131.604 154.346C129.881 160.954 130.756 168.215 134.66 174.418L135.851 176.312C143.352 188.233 159.253 191.851 171.174 184.35L302.398 101.779C302.799 101.527 303.164 101.246 303.549 100.97C304.358 100.478 305.178 100.03 305.979 99.5259C399.147 40.9014 427.146 -82.1345 368.521 -175.302C309.889 -268.482 186.853 -296.482 93.6855 -237.857Z" fill="#FF5E16"/>
</svg>
