<svg version="1.2" xmlns="http://www.w3.org/2000/svg" viewBox="0 0 73 73" width="73" height="73">
	<title>Ellipse 58-svg</title>
	<style>
		.s0 { fill: none;stroke: #ffffff;stroke-width: 3 } 
		.s1 { fill: #ffffff } 
	</style>
	<path id="Layer" class="s0" d="m36.5 71.5c-19.4 0-35-15.6-35-35c0-19.4 15.6-35 35-35c19.4 0 35 15.6 35 35c0 19.4-15.6 35-35 35z" />
	<path id="Layer" fill-rule="evenodd" class="s1" d="m28.1 25.4c0.7-0.5 1.6-0.6 2.4-0.1l14.4 8.7q0 0 0 0c0.8 0.5 1.1 1.3 1.1 2c0 0.7-0.3 1.5-1.1 2q0 0 0 0l-14.4 8.7c-0.8 0.5-1.7 0.4-2.4-0.1c-0.7-0.4-1.1-1.2-1.1-2.1v-17c0-0.9 0.4-1.7 1.1-2.1zm1.3 1.9q-0.1 0.1-0.1 0.2v17q0 0.1 0.1 0.2l14.3-8.7q0 0 0 0q0 0 0 0zm14.3 8.6q0 0 0 0z" />
</svg>