<svg width="1811" height="592" viewBox="0 0 1811 592" fill="none" xmlns="http://www.w3.org/2000/svg">
<path d="M0 20C0 8.95431 8.9543 0 20 0H1791C1802.05 0 1811 8.9543 1811 20V572C1811 583.046 1802.05 592 1791 592H20C8.95428 592 0 583.046 0 572V20Z" fill="#FFF5F1"/>
<mask id="mask0_121_1018" style="mask-type:alpha" maskUnits="userSpaceOnUse" x="0" y="0" width="1811" height="592">
<path d="M0 20C0 8.95431 8.9543 0 20 0H1791C1802.05 0 1811 8.9543 1811 20V592H0V20Z" fill="#F1F1F1"/>
</mask>
<g mask="url(#mask0_121_1018)">
<g opacity="0.1">
<path fill-rule="evenodd" clip-rule="evenodd" d="M1294.38 -406.138C1235.34 -743.82 1461.21 -1065.38 1798.89 -1124.41C2136.57 -1183.44 2458.13 -957.577 2517.16 -619.852C2576.2 -282.17 2350.33 39.3865 2012.65 98.4174C2011 98.707 2009.34 98.937 2007.69 99.1672C2006.44 99.3405 2005.2 99.5138 2003.95 99.7129C2003.58 99.801 2003.21 99.8916 2002.84 99.9818C2001.79 100.241 2000.75 100.498 1999.67 100.686L1524.06 183.83C1480.85 191.382 1439.3 162.193 1431.74 118.987L1430.54 112.123C1426.61 89.6405 1432.66 67.6808 1445.42 50.6687L1445.33 50.6841L1510.95 -34.0604L1512.65 -32.9064C1401.48 -123.881 1321.06 -253.511 1294.38 -406.138ZM1674.97 -507.025H2131.36C2145.56 -507.025 2159.72 -501.085 2170.31 -491.616C2179.78 -482.147 2184.46 -467.988 2183.3 -453.785C2173.88 -317.825 2050.92 -211.433 1903.12 -211.433C1755.37 -211.433 1632.41 -316.664 1622.94 -452.623C1622.94 -466.827 1627.67 -479.824 1637.14 -490.454C1646.61 -501.129 1660.77 -507.025 1674.97 -507.025Z" fill="#FF6D2C"/>
</g>
<g opacity="0.1">
<path fill-rule="evenodd" clip-rule="evenodd" d="M-405.339 742.142C-444.195 583.33 -346.964 423.109 -188.152 384.253C-29.3398 345.398 130.881 442.629 169.742 601.462C208.597 760.274 111.366 920.494 -47.4457 959.35C-48.2253 959.541 -49.0047 959.703 -49.7851 959.865C-50.3719 959.987 -50.9592 960.109 -51.5475 960.244C-51.721 960.298 -51.8927 960.352 -52.0638 960.407C-52.5563 960.564 -53.0433 960.719 -53.55 960.843L-277.232 1015.57C-297.552 1020.54 -318.258 1007.98 -323.23 987.656L-324.02 984.428C-326.607 973.855 -324.43 963.212 -318.9 954.71L-318.941 954.72L-290.415 912.3L-289.57 912.795C-345.372 873.046 -387.777 813.923 -405.339 742.142ZM-227.439 682L-10.2569 667.451C-3.49785 666.998 3.42931 669.374 8.76855 673.543C13.5764 677.747 16.2595 684.335 16.1597 691.131C16.009 756.131 -39.114 810.68 -109.446 815.391C-179.757 820.101 -241.626 773.945 -250.466 709.547C-250.919 702.788 -249.08 696.452 -244.913 691.091C-240.747 685.71 -234.198 682.452 -227.439 682Z" fill="#FF6D2C"/>
<path d="M140.499 331.259L115.433 389.973L200.806 503.38L264.206 495.504C281.119 493.407 286.616 480.531 276.377 466.914L171.415 327.487C161.089 313.86 147.239 315.557 140.499 331.259Z" fill="#FF6D2C"/>
</g>
</g>
</svg>
