<svg width="13" height="13" viewBox="0 0 13 13" fill="none" xmlns="http://www.w3.org/2000/svg">
<path d="M6.34197 0.844285L5.81164 1.38081C5.68612 1.50779 5.68612 1.71369 5.81164 1.8407L9.96691 6.04447L0.821431 6.04447C0.643921 6.04447 0.500001 6.19007 0.500001 6.36966L0.500001 7.12842C0.500001 7.308 0.643921 7.4536 0.821431 7.4536L9.96691 7.4536L5.81164 11.6574C5.68612 11.7844 5.68612 11.9903 5.81164 12.1173L6.34197 12.6538C6.46749 12.7808 6.67101 12.7808 6.79655 12.6538L12.4059 6.97897C12.5314 6.85198 12.5314 6.64609 12.4059 6.51908L6.79655 0.844258C6.67103 0.717274 6.46752 0.717274 6.34197 0.844285Z" fill="#EC4239"/>
</svg>
