<svg width="201" height="213" viewBox="0 0 201 213" fill="none" xmlns="http://www.w3.org/2000/svg">
<path opacity="0.2" d="M82.9976 1.5143C28.4586 11.0484 -8.0203 62.9831 1.51379 117.522C5.82308 142.173 18.8128 163.109 36.7674 177.803L36.4932 177.616L25.8945 191.303L25.9087 191.301C23.8479 194.049 22.8714 197.595 23.5062 201.226L23.7 202.335C24.9198 209.313 31.6319 214.028 38.61 212.808L115.426 199.379C115.661 199.338 115.885 199.277 116.117 199.222C116.587 199.147 117.054 199.095 117.523 199.013C172.062 189.479 208.541 137.544 199.007 83.0052C189.471 28.4591 137.537 -8.01979 82.9976 1.5143Z" fill="white"/>
<path d="M158.07 143.408H148.201V143.482H158.07V143.408Z" fill="#EBEBEB"/>
<path d="M122.704 144.218H120.114V144.293H122.704V144.218Z" fill="#EBEBEB"/>
<path d="M147.903 140.642H142.184V140.717H147.903V140.642Z" fill="#EBEBEB"/>
<path d="M52.5039 141.143H39.6333V141.217H52.5039V141.143Z" fill="#EBEBEB"/>
<path d="M57.045 141.143H55.1587V141.217H57.045V141.143Z" fill="#EBEBEB"/>
<path d="M91.0949 142.4H63.1782V142.475H91.0949V142.4Z" fill="#EBEBEB"/>
<path d="M94.6261 125.322H37.0853C36.6345 125.321 36.2025 125.142 35.884 124.823C35.5656 124.504 35.3867 124.071 35.3867 123.62V42.7343C35.3906 42.2861 35.5712 41.8576 35.8893 41.5418C36.2073 41.226 36.6371 41.0484 37.0853 41.0476H94.6261C95.0774 41.0476 95.5102 41.2269 95.8293 41.546C96.1484 41.8651 96.3277 42.2979 96.3277 42.7492V123.62C96.3277 124.072 96.1484 124.505 95.8293 124.824C95.5102 125.143 95.0774 125.322 94.6261 125.322ZM37.0853 41.1072C36.6543 41.108 36.2412 41.2798 35.9367 41.5849C35.6322 41.8899 35.4612 42.3033 35.4612 42.7343V123.62C35.4612 124.051 35.6322 124.465 35.9367 124.77C36.2412 125.075 36.6543 125.247 37.0853 125.248H94.6261C95.0574 125.247 95.4708 125.075 95.7758 124.77C96.0807 124.465 96.2524 124.052 96.2532 123.62V42.7343C96.2524 42.303 96.0807 41.8896 95.7758 41.5847C95.4708 41.2797 95.0574 41.108 94.6261 41.1072H37.0853Z" fill="#EBEBEB"/>
<path d="M159.086 125.286H101.542C101.092 125.286 100.66 125.106 100.341 124.788C100.022 124.47 99.8424 124.038 99.8408 123.588V42.6986C99.8424 42.2481 100.022 41.8165 100.341 41.4982C100.66 41.1799 101.092 41.0008 101.542 41H159.086C159.537 41 159.969 41.1789 160.288 41.4973C160.607 41.8158 160.787 42.2478 160.788 42.6986V123.594C160.785 124.043 160.605 124.474 160.286 124.791C159.967 125.108 159.536 125.286 159.086 125.286ZM101.542 41.0745C101.111 41.0745 100.698 41.2455 100.393 41.55C100.088 41.8545 99.9161 42.2676 99.9153 42.6986V123.594C99.9161 124.025 100.088 124.438 100.393 124.742C100.698 125.047 101.111 125.218 101.542 125.218H159.086C159.517 125.218 159.931 125.047 160.236 124.742C160.541 124.438 160.712 124.025 160.713 123.594V42.6986C160.712 42.2676 160.541 41.8545 160.236 41.55C159.931 41.2455 159.517 41.0745 159.086 41.0745H101.542Z" fill="#EBEBEB"/>
<path d="M173 138.613H24V138.687H173V138.613Z" fill="#EBEBEB"/>
<path d="M138.832 126.788V48.6529H137.297V126.788H138.832Z" fill="#FFD3BF"/>
<path d="M135.914 121.904L136.331 120.73H139.379L140.217 121.904H135.914Z" fill="#FFD3BF"/>
<path d="M132.502 125.7L133.253 126.544L137.27 131.029H137.273H137.577H137.604H138.528H138.554H138.861L138.566 130.698L138.528 130.653L138.066 130.138L137.604 129.625L137.526 129.539L137.273 129.253L133.947 125.537L133.217 124.723H133.122L132.502 125.7Z" fill="#FFD3BF"/>
<path d="M143.626 125.7L142.899 126.514L138.861 131.029H137.27L137.273 131.026L137.565 130.695L137.604 130.653L138.066 130.138L138.528 129.625L138.605 129.536L138.861 129.25L142.205 125.516L142.914 124.723H143.007L143.626 125.7Z" fill="#FFD3BF"/>
<path d="M150.9 136.849H150.263L143.111 126.544L142.413 125.543L139.886 121.904L139.073 120.73H140.202C140.343 120.73 140.482 120.765 140.605 120.833C140.729 120.901 140.833 120.999 140.908 121.117L143.2 124.75L143.82 125.73L150.9 136.849Z" fill="#FFD3BF"/>
<path d="M125.32 136.849L135.318 121.117C135.394 120.999 135.498 120.901 135.621 120.834C135.745 120.766 135.883 120.73 136.024 120.73H137.156L126.077 136.849H125.32Z" fill="#FFD3BF"/>
<path d="M59.4263 126.788L59.4263 48.6529H57.8916L57.8916 126.788H59.4263Z" fill="#FFD3BF"/>
<path d="M56.5806 121.844L56.9978 120.67H60.0463L60.8837 121.844H56.5806Z" fill="#FFD3BF"/>
<path d="M53.1685 125.671L53.9194 126.511L57.9365 130.999H58.2434H58.2702H59.194H59.2208H59.5278L59.2328 130.668L59.194 130.624L58.7321 130.108L58.2702 129.593L58.1898 129.506L57.9365 129.223L54.6138 125.507L53.8837 124.694H53.7883L53.1685 125.671Z" fill="#FFD3BF"/>
<path d="M64.2929 125.671L63.5657 126.485L59.5278 130.999H57.9365V130.996L58.2315 130.665L58.2703 130.624L58.7322 130.108L59.1941 129.593L59.2716 129.506L59.5278 129.22L62.8714 125.483L63.5806 124.694H63.673L64.2929 125.671Z" fill="#FFD3BF"/>
<path d="M71.3612 136.789H70.7264L63.5744 126.484L62.8801 125.483L60.356 121.844L59.5425 120.67H60.654C60.7949 120.67 60.9337 120.705 61.0572 120.773C61.1807 120.841 61.285 120.939 61.3603 121.058L63.6698 124.69L64.2896 125.671L71.3612 136.789Z" fill="#FFD3BF"/>
<path d="M46.0996 136.789L56.0975 121.058C56.1734 120.939 56.2778 120.842 56.4012 120.774C56.5246 120.706 56.663 120.671 56.8038 120.67H57.9362L46.8565 136.789H46.0996Z" fill="#FFD3BF"/>
<path d="M132.982 51.1381H63.5059V122.286H132.982V51.1381Z" fill="#FFB391"/>
<path d="M137.818 49.3648H58.9077V50.8995H137.818V49.3648Z" fill="#FFD3BF"/>
<path d="M133.419 48.6495H62.8501L63.0766 52.4341H133.646L133.419 48.6495Z" fill="#FFD3BF"/>
<path d="M98.4999 152.503C130.411 152.503 156.279 150.992 156.279 149.129C156.279 147.266 130.411 145.756 98.4999 145.756C66.5893 145.756 40.7207 147.266 40.7207 149.129C40.7207 150.992 66.5893 152.503 98.4999 152.503Z" fill="#DC7242"/>
<path d="M108.608 96.6781C107.282 101.121 109.258 105.949 108.415 110.505C108.274 111.454 107.916 112.358 107.369 113.146C106.281 114.603 89.6018 114.558 88.5141 113.101C87.9677 112.313 87.6098 111.409 87.4681 110.461C86.6248 105.901 88.6005 101.074 87.2744 96.6334C87.0291 95.9802 86.8485 95.3045 86.7351 94.616C86.5741 92.9353 87.6291 91.3886 88.8211 90.1907C90.0131 88.9927 91.3958 87.9289 92.1765 86.4359C92.546 85.7326 92.7725 84.9459 93.1271 84.2515C93.4944 83.5383 94.0011 82.9059 94.6171 82.392C95.4959 81.671 96.5975 81.2771 97.7342 81.2775H97.764L98.1306 81.2954H98.2617C99.2575 81.3229 100.221 81.6558 101.021 82.249C101.746 82.7966 102.337 83.5004 102.753 84.3082C103.113 85.0114 103.349 85.7982 103.703 86.4895C104.484 87.9795 105.873 89.0464 107.059 90.2443C108.245 91.4423 109.309 92.9919 109.145 94.6726C109.03 95.3567 108.851 96.0282 108.608 96.6781Z" fill="#FF5E16"/>
<path opacity="0.7" d="M108.608 96.6781C107.282 101.121 109.258 105.949 108.415 110.505C108.274 111.454 107.916 112.358 107.369 113.146C106.281 114.603 89.6018 114.558 88.5141 113.101C87.9677 112.313 87.6098 111.409 87.4681 110.461C86.6248 105.901 88.6005 101.074 87.2744 96.6334C87.0291 95.9802 86.8485 95.3045 86.7351 94.616C86.5741 92.9353 87.6291 91.3886 88.8211 90.1907C90.0131 88.9927 91.3958 87.9289 92.1765 86.4359C92.546 85.7326 92.7725 84.9459 93.1271 84.2515C93.4944 83.5383 94.0011 82.9059 94.6171 82.392C95.4959 81.671 96.5975 81.2771 97.7342 81.2775H97.764L98.1306 81.2954H98.2617C99.2575 81.3229 100.221 81.6558 101.021 82.249C101.746 82.7966 102.337 83.5004 102.753 84.3082C103.113 85.0114 103.349 85.7982 103.703 86.4895C104.484 87.9795 105.873 89.0464 107.059 90.2443C108.245 91.4423 109.309 92.9919 109.145 94.6726C109.03 95.3567 108.851 96.0282 108.608 96.6781Z" fill="white"/>
<path d="M97.577 81.2628L97.5435 81.2658V81.2628H97.577Z" fill="#FF5E16"/>
<path opacity="0.4" d="M104.412 114.078C103.706 113.369 92.1942 113.369 91.485 114.078C90.7757 114.788 91.8932 109.31 91.485 99.5985C91.0767 89.8867 94.2504 88.1583 94.2504 88.1583H101.65C101.65 88.1583 104.815 89.8867 104.412 99.5985C104.01 109.31 105.118 114.785 104.412 114.078Z" fill="black"/>
<path d="M94.8134 89.4278C94.4946 89.851 94.128 90.4738 94.286 90.9506H97.1468L97.5431 88.1583H95.3498V88.2298C95.2719 88.6671 95.0877 89.0785 94.8134 89.4278Z" fill="white"/>
<path d="M101.501 89.4278C101.82 89.851 102.189 90.4738 102.028 90.9506H99.1435L98.771 88.1583H100.964V88.2298C101.042 88.6671 101.226 89.0785 101.501 89.4278Z" fill="white"/>
<path d="M104.403 85.1511C104.263 85.917 104.078 87.2669 104.278 88.3427C104.451 89.2546 102.231 89.2367 100.297 89.0579C98.7356 88.9119 97.1643 88.9119 95.6032 89.0579C93.6721 89.2397 91.4461 89.2546 91.6189 88.3427C91.8215 87.2669 91.6368 85.917 91.4967 85.1511C91.4837 85.0783 91.4867 85.0035 91.5057 84.9319C91.5247 84.8604 91.5591 84.7939 91.6065 84.737C91.6539 84.6802 91.7133 84.6345 91.7803 84.6031C91.8473 84.5717 91.9204 84.5553 91.9944 84.5551H103.914C103.988 84.5566 104.06 84.5739 104.126 84.6059C104.192 84.6379 104.25 84.6838 104.296 84.7404C104.343 84.7971 104.376 84.8631 104.395 84.9341C104.413 85.005 104.416 85.079 104.403 85.1511Z" fill="#FF5E16"/>
<path opacity="0.5" d="M104.403 85.1511C104.263 85.917 104.078 87.2669 104.278 88.3427C104.451 89.2546 102.231 89.2367 100.297 89.0579C98.7356 88.9119 97.1643 88.9119 95.6032 89.0579C93.6721 89.2397 91.4461 89.2546 91.6189 88.3427C91.8215 87.2669 91.6368 85.917 91.4967 85.1511C91.4837 85.0783 91.4867 85.0035 91.5057 84.9319C91.5247 84.8604 91.5591 84.7939 91.6065 84.737C91.6539 84.6802 91.7133 84.6345 91.7803 84.6031C91.8473 84.5717 91.9204 84.5553 91.9944 84.5551H103.914C103.988 84.5566 104.06 84.5739 104.126 84.6059C104.192 84.6379 104.25 84.6838 104.296 84.7404C104.343 84.7971 104.376 84.8631 104.395 84.9341C104.413 85.005 104.416 85.079 104.403 85.1511Z" fill="white"/>
<path d="M94.7031 85.3186C94.5956 85.4317 94.5204 85.5717 94.4856 85.7238C94.4692 85.8002 94.478 85.8799 94.5108 85.9509C94.5436 86.0218 94.5985 86.0802 94.6674 86.1172C94.7459 86.1396 94.8291 86.1401 94.9079 86.1185C94.9867 86.097 95.0581 86.0543 95.1144 85.995C95.5256 85.6493 95.6448 85.0712 95.7372 84.5408C95.7372 84.5408 95.2544 84.7941 95.2157 84.8388C95.0279 84.9795 94.856 85.1404 94.7031 85.3186Z" fill="#263238"/>
<path d="M101.877 94.911C98.3513 94.4998 95.8779 94.5922 92.3407 95.0064H92.287C92.0644 95.0439 91.8513 95.125 91.6599 95.2449C91.4686 95.3648 91.3027 95.5212 91.1718 95.7053C91.0409 95.8893 90.9476 96.0973 90.8971 96.3174C90.8466 96.5375 90.8399 96.7654 90.8775 96.9881C91.8763 103.051 92.341 109.189 92.2662 115.333L105.053 115.095C105.143 109.102 105.649 99.977 105.208 97.1877C105.837 95.7156 103.11 95.1196 101.877 94.911Z" fill="#FF5E16"/>
<path opacity="0.4" d="M101.877 94.911C98.3513 94.4998 95.8779 94.5922 92.3407 95.0064H92.287C92.0644 95.0439 91.8513 95.125 91.6599 95.2449C91.4686 95.3648 91.3027 95.5212 91.1718 95.7053C91.0409 95.8893 90.9476 96.0973 90.8971 96.3174C90.8466 96.5375 90.8399 96.7654 90.8775 96.9881C91.8763 103.051 92.341 109.189 92.2662 115.333L105.053 115.095C105.143 109.102 105.649 99.977 105.208 97.1877C105.837 95.7156 103.11 95.1196 101.877 94.911Z" fill="black"/>
<path d="M101.48 96.3982C101.48 97.4502 101.858 98.3024 102.323 98.3024C102.788 98.3024 103.164 97.4502 103.164 96.3982C103.164 95.3463 102.788 94.497 102.323 94.497C101.858 94.497 101.48 95.3493 101.48 96.3982Z" fill="#263238"/>
<path d="M93.8573 95.4745C93.8245 95.4 93.1331 93.6031 94.1195 92.2203C94.8705 91.1624 96.3664 90.6767 98.5597 90.7721C100.318 90.8525 101.513 91.3204 102.109 92.1697C102.824 93.1859 102.452 94.3898 102.312 94.8517L102.297 94.9053L101.599 94.6878L101.617 94.6312C101.739 94.2378 102.022 93.314 101.516 92.5899C101.054 91.9372 100.05 91.5707 98.5359 91.5051C96.6048 91.4187 95.3204 91.8031 94.7185 92.6465C93.9616 93.7103 94.5367 95.1944 94.5427 95.2093L93.8573 95.4745Z" fill="#263238"/>
<path d="M100.538 96.3982C100.538 97.772 101.03 98.8835 101.638 98.8835C102.246 98.8835 102.737 97.772 102.737 96.3982C102.737 95.0244 102.246 93.9158 101.638 93.9158C101.03 93.9158 100.538 95.0274 100.538 96.3982Z" fill="#263238"/>
<path d="M95.9702 96.3982C95.9702 97.772 95.4785 98.8835 94.8706 98.8835C94.2626 98.8835 93.7739 97.772 93.7739 96.3982C93.7739 95.0244 94.2656 93.9158 94.8706 93.9158C95.4755 93.9158 95.9702 95.0274 95.9702 96.3982Z" fill="#263238"/>
<path d="M95.9702 96.3982C95.9702 97.772 95.4785 98.8835 94.8706 98.8835C94.2626 98.8835 93.7739 97.772 93.7739 96.3982C93.7739 95.0244 94.2656 93.9158 94.8706 93.9158C95.4755 93.9158 95.9702 95.0274 95.9702 96.3982Z" fill="#263238"/>
<path d="M95.0436 96.3982C95.0436 97.4502 94.6652 98.3024 94.2003 98.3024C93.7354 98.3024 93.3569 97.4502 93.3569 96.3982C93.3569 95.3463 93.7354 94.497 94.2003 94.497C94.6652 94.497 95.0436 95.3493 95.0436 96.3982Z" fill="#263238"/>
<path d="M95.0436 96.3982C95.0436 97.4502 94.6652 98.3024 94.2003 98.3024C93.7354 98.3024 93.3569 97.4502 93.3569 96.3982C93.3569 95.3463 93.7354 94.497 94.2003 94.497C94.6652 94.497 95.0436 95.3493 95.0436 96.3982Z" fill="#263238"/>
<g opacity="0.5">
<path opacity="0.5" d="M95.0436 96.3982C95.0436 97.4502 94.6652 98.3024 94.2003 98.3024C93.7354 98.3024 93.3569 97.4502 93.3569 96.3982C93.3569 95.3463 93.7354 94.497 94.2003 94.497C94.6652 94.497 95.0436 95.3493 95.0436 96.3982Z" fill="white"/>
<path opacity="0.5" d="M95.0436 96.3982C95.0436 97.4502 94.6652 98.3024 94.2003 98.3024C93.7354 98.3024 93.3569 97.4502 93.3569 96.3982C93.3569 95.3463 93.7354 94.497 94.2003 94.497C94.6652 94.497 95.0436 95.3493 95.0436 96.3982Z" fill="white"/>
</g>
<path d="M101.48 96.3982C101.48 97.4502 101.858 98.3024 102.323 98.3024C102.788 98.3024 103.164 97.4502 103.164 96.3982C103.164 95.3463 102.788 94.497 102.323 94.497C101.858 94.497 101.48 95.3493 101.48 96.3982Z" fill="#263238"/>
<path opacity="0.5" d="M101.48 96.3982C101.48 97.4502 101.858 98.3024 102.323 98.3024C102.788 98.3024 103.164 97.4502 103.164 96.3982C103.164 95.3463 102.788 94.497 102.323 94.497C101.858 94.497 101.48 95.3493 101.48 96.3982Z" fill="white"/>
<path d="M95.7135 94.753C95.5943 94.911 96.9472 96.8957 99.3461 96.8957C100.979 96.8957 100.315 94.7769 100.315 94.7769C99.1226 94.3209 98.9438 93.4836 99.0391 92.5031C99.0632 92.2282 99.107 91.9553 99.1703 91.6866L97.1409 90.0029L95.6509 88.7603C96.0413 90.441 96.6581 93.4001 95.7135 94.753Z" fill="#F9BBB2"/>
<path opacity="0.2" d="M97.1886 90.6106C97.1702 90.8692 97.1802 91.129 97.2184 91.3854C97.3138 92.1572 98.321 92.9588 99.078 93.1108C99.1037 92.8361 99.1475 92.5633 99.2091 92.2943L97.1886 90.6106Z" fill="black"/>
<path d="M95.1266 85.1513C95.37 84.3379 95.9263 83.6544 96.6734 83.251C97.4205 82.8476 98.2972 82.7572 99.1108 82.9998C101.611 83.6732 102.487 87.1897 102.302 89.4038C102.265 89.9795 102.07 90.5339 101.74 91.0071C101.41 91.4803 100.957 91.8543 100.43 92.0887C99.9032 92.3232 99.3221 92.409 98.7497 92.3371C98.1773 92.2651 97.6355 92.0381 97.1828 91.6805C95.7792 90.5958 95.5974 89.1803 95.0819 86.8052C94.952 86.2595 94.9674 85.6892 95.1266 85.1513Z" fill="#F9BBB2"/>
<path d="M100.541 89.3234C100.562 89.3597 100.593 89.3885 100.631 89.4056C100.669 89.4228 100.712 89.4274 100.753 89.4188C100.786 89.4025 100.813 89.3768 100.832 89.345C100.85 89.3133 100.859 89.2767 100.857 89.24C100.863 89.1558 100.841 89.072 100.794 89.0016C100.762 88.9569 100.708 88.9151 100.657 88.93C100.535 88.9658 100.485 89.2251 100.541 89.3234Z" fill="#263238"/>
<path d="M95.0286 87.6162C95.6484 87.4612 96.3129 88.1734 96.5782 88.7158C96.8762 89.3118 96.6735 89.9346 96 89.8154C95.4804 89.7139 95.0154 89.4269 94.6918 89.0078C94.2955 88.4744 94.4087 87.7711 95.0286 87.6162Z" fill="#F9BBB2"/>
<path d="M99.0329 86.5402C99.164 86.5074 99.2951 86.6534 99.3309 86.8382C99.3667 87.023 99.2773 87.2047 99.1521 87.2196C99.0269 87.2345 98.8958 87.0885 98.8541 86.8918C98.8124 86.6952 98.9018 86.57 99.0329 86.5402Z" fill="#263238"/>
<path d="M101.435 86.1859C101.551 86.1859 101.668 86.3021 101.694 86.4839C101.721 86.6656 101.647 86.7968 101.534 86.8236C101.42 86.8504 101.304 86.7222 101.277 86.5464C101.25 86.3706 101.319 86.2008 101.435 86.1859Z" fill="#263238"/>
<path d="M100.83 88.4295C100.968 88.4591 101.111 88.4577 101.248 88.4252C101.385 88.3927 101.513 88.3301 101.623 88.2418C101.251 87.8225 100.938 87.3543 100.693 86.8501L100.83 88.4295Z" fill="#ED847E"/>
<path d="M98.5746 86.3703C98.6386 86.2416 98.7327 86.1303 98.8489 86.0458C98.9651 85.9612 99.1 85.9059 99.2421 85.8846C99.2587 85.8856 99.2753 85.8831 99.2909 85.8771C99.3064 85.8712 99.3205 85.862 99.3322 85.8501C99.3438 85.8383 99.3528 85.824 99.3585 85.8084C99.3642 85.7928 99.3665 85.7761 99.3652 85.7595C99.3639 85.743 99.3591 85.7268 99.3511 85.7123C99.343 85.6977 99.3319 85.6851 99.3185 85.6752C99.3052 85.6653 99.2898 85.6584 99.2736 85.6549C99.2573 85.6514 99.2405 85.6515 99.2242 85.6551C99.0442 85.6769 98.8723 85.7427 98.7236 85.8466C98.575 85.9506 98.4542 86.0895 98.3719 86.2511C98.3566 86.2768 98.3521 86.3075 98.3593 86.3366C98.3666 86.3656 98.3851 86.3906 98.4107 86.4061C98.4281 86.4115 98.4469 86.4115 98.4643 86.4061C98.4842 86.4103 98.5049 86.4092 98.5242 86.4029C98.5436 86.3966 98.5609 86.3854 98.5746 86.3703Z" fill="#263238"/>
<path d="M101.87 85.9235C101.881 85.913 101.889 85.9005 101.895 85.8866C101.901 85.8728 101.904 85.858 101.904 85.8431C101.904 85.8281 101.901 85.8133 101.895 85.7995C101.889 85.7857 101.881 85.7731 101.87 85.7626C101.738 85.6323 101.577 85.5348 101.4 85.4778C101.223 85.4209 101.035 85.4062 100.851 85.4348C100.836 85.438 100.822 85.444 100.81 85.4527C100.798 85.4613 100.787 85.4724 100.779 85.4851C100.771 85.4979 100.766 85.5122 100.763 85.5271C100.761 85.542 100.761 85.5572 100.765 85.5719C100.772 85.6015 100.79 85.6272 100.816 85.6438C100.841 85.6604 100.872 85.6667 100.902 85.6613C101.05 85.64 101.2 85.6535 101.342 85.7006C101.484 85.7476 101.613 85.827 101.718 85.9325C101.732 85.9448 101.749 85.9537 101.767 85.9583C101.785 85.963 101.804 85.9633 101.823 85.9593C101.841 85.9517 101.858 85.9394 101.87 85.9235Z" fill="#263238"/>
<path d="M97.186 85.1335C97.1857 85.0971 97.1772 85.0613 97.1611 85.0288C97.145 84.9962 97.1218 84.9677 97.0931 84.9453C97.0645 84.923 97.0312 84.9074 96.9957 84.8997C96.9601 84.8921 96.9234 84.8925 96.888 84.901L95.2967 84.9904C95.0932 85.0034 94.8975 85.0734 94.732 85.1926C94.5665 85.3117 94.4379 85.475 94.361 85.6639C93.5355 87.6635 94.0839 89.1386 94.4415 89.6839C96.8255 93.2927 96.4828 90.5243 96.1699 89.8538C95.5113 89.6988 95.1149 89.4515 94.954 88.8793C94.8527 88.5068 94.8318 87.9853 95.1179 87.738C95.2345 87.6405 95.3758 87.577 95.5261 87.5544C95.6764 87.5318 95.8301 87.551 95.9702 87.6098C95.9344 88.3936 96.2682 88.9032 96.745 89.5796C96.745 89.5796 96.1788 87.2433 96.8106 86.9423C97.1741 86.7665 97.1831 85.7116 97.186 85.1335Z" fill="#263238"/>
<path d="M95.398 83.2145C95.1722 83.4291 94.9952 83.6897 94.879 83.9786C94.7628 84.2676 94.7101 84.5782 94.7245 84.8893C94.7267 84.9586 94.753 85.025 94.799 85.077C94.8546 85.1189 94.9231 85.14 94.9927 85.1366C96.1937 85.2141 97.3987 85.2052 98.5985 85.1098L97.7969 84.5943C98.3539 84.8782 98.9615 85.0493 99.5849 85.0979C100.151 85.1456 100.777 85.0979 101.242 85.3959C101.707 85.6939 101.942 86.2899 102.136 86.8263C102.445 86.1856 102.615 85.487 102.636 84.776C102.651 84.0618 102.409 83.3659 101.954 82.8152C101.365 82.2269 100.578 81.8785 99.7458 81.8378C96.1489 81.4861 95.398 83.2145 95.398 83.2145Z" fill="#263238"/>
<path d="M89.6341 96.9671C89.4076 97.6048 88.761 101.139 92.9955 106.119C93.3442 106.527 94.8104 107.329 96.1335 105.97C97.7278 104.328 98.1122 97.1757 98.2642 96.237C98.4162 95.2983 98.5801 94.2434 98.7261 93.3375C97.1437 93.5192 97.3642 92.7146 97.0156 92.2349C96.6609 92.6848 95.0368 101.068 94.0713 102.698C94.1011 101.613 92.6081 95.0539 91.8304 95.1642C91.3273 95.2146 90.8503 95.4126 90.4595 95.7334C90.0687 96.0542 89.7815 96.4835 89.6341 96.9671Z" fill="#FF5E16"/>
<path d="M94.4828 101.765C94.5961 101.449 94.6884 101.103 94.8285 100.618L93.6752 99.9292C93.6379 99.9144 93.597 99.9111 93.5577 99.9196C93.5185 99.928 93.4826 99.948 93.4547 99.9769L92.8379 100.612C92.6969 100.748 92.5982 100.922 92.5538 101.113C92.5094 101.303 92.5211 101.503 92.5875 101.687C92.6449 101.837 92.7379 101.97 92.8584 102.076C92.9788 102.182 93.1232 102.256 93.279 102.293C93.4349 102.331 93.5974 102.33 93.7526 102.29C93.9079 102.25 94.0511 102.173 94.1699 102.066L94.4977 101.768L94.4828 101.765Z" fill="#F9BBB2"/>
<path d="M103.396 97.3458C103.325 97.5901 102.267 103.902 102.305 103.771C102.043 104.069 101.754 103.92 101.563 103.863C100.088 103.422 98.2228 101.998 96.7477 101.557C96.545 101.497 96.2917 101.446 96.1517 101.598C96.0746 101.697 96.0308 101.818 96.0265 101.944C95.9729 102.346 95.7523 103.136 95.6987 103.529C95.6771 103.621 95.6844 103.716 95.7196 103.803C95.7645 103.869 95.8262 103.922 95.8984 103.955C97.7221 105.007 98.4373 105.547 100.258 106.602C101.051 107.058 103.7 108.318 104.6 107.472C105.551 106.578 108.069 97.2385 104.558 95.7157C104.183 95.5548 104.001 95.2836 103.396 97.3458Z" fill="#FF5E16"/>
<path d="M101.382 91.7075C101.367 91.7641 101.355 91.8207 101.346 91.8743C101.296 92.1078 101.165 92.3161 100.976 92.4627C100.788 92.6093 100.553 92.6848 100.315 92.676H100.195C100.112 92.6938 99.367 93.0574 98.7889 93.3375C98.5092 93.4786 98.1887 93.5168 97.8836 93.4455C97.5785 93.3741 97.3083 93.1977 97.1201 92.9472C97.0267 92.7355 96.9849 92.5047 96.998 92.2737C96.998 92.229 97.9188 91.3141 98.488 90.733C98.6126 90.6085 98.7633 90.5132 98.9293 90.454C99.0952 90.3947 99.2722 90.373 99.4475 90.3903C99.7455 90.4201 100.324 90.4291 100.678 90.4648C101.298 90.5155 101.507 91.1115 101.382 91.7075Z" fill="#E6A8A1"/>
<path d="M127.2 148.539H69.9395L66.3784 109.727H130.764L127.2 148.539Z" fill="#37474F"/>
<path d="M131.557 109.695H65.4429V112.821H131.557V109.695Z" fill="#263238"/>
<path opacity="0.2" d="M131.557 109.695H65.4429V112.821H131.557V109.695Z" fill="white"/>
<path d="M107.279 128.812L92.7217 120.408V137.215L107.279 128.812Z" fill="#FFB391"/>
<path d="M154.438 129.089L154.938 144.034H155.528L156.029 129.089H154.438Z" fill="black"/>
<path d="M153.082 134.143L153.499 132.969H156.547L157.385 134.143H153.082Z" fill="#263238"/>
<path d="M149.67 137.97L150.421 138.813L154.438 143.298H154.745H154.772H155.695H155.722H156.029L155.734 142.97L155.695 142.925L155.234 142.41L154.772 141.894L154.694 141.808L154.438 141.522L151.115 137.806L150.385 136.992H150.29L149.67 137.97Z" fill="#263238"/>
<path d="M160.794 137.97L160.067 138.783L156.029 143.298H154.438V143.295L154.733 142.967L154.771 142.925L155.233 142.41L155.695 141.894L155.773 141.805L156.029 141.519L159.372 137.785L160.082 136.992H160.174L160.794 137.97Z" fill="#263238"/>
<path d="M155.695 140.601V78.5601H154.771V140.601H155.695Z" fill="#263238"/>
<path opacity="0.2" d="M155.695 82.3209H154.771V140.601H155.695V82.3209Z" fill="white"/>
<path d="M167.862 149.091H167.228L160.067 138.792L159.372 137.794L156.842 134.152L156.029 132.981H157.158C157.299 132.98 157.438 133.015 157.562 133.083C157.685 133.151 157.79 133.249 157.864 133.368L160.186 137.004L160.806 137.981L167.862 149.091Z" fill="#263238"/>
<path d="M142.604 149.088L152.602 133.356C152.678 133.238 152.782 133.14 152.906 133.072C153.029 133.005 153.167 132.969 153.308 132.969H154.441L143.361 149.088H142.604Z" fill="#263238"/>
<path d="M156.607 78.5601H153.862V82.3208H156.607V78.5601Z" fill="#263238"/>
<path opacity="0.3" d="M156.607 78.5601H153.862V82.3208H156.607V78.5601Z" fill="white"/>
<path d="M152.169 76.3699L156.437 74.6355C157.03 74.9851 157.498 75.5127 157.775 76.1434C158.032 76.8052 158.041 77.538 157.799 78.2056L153.719 79.9936L152.169 76.3699Z" fill="#263238"/>
<path opacity="0.5" d="M152.169 76.3699L156.437 74.6355C157.03 74.9851 157.498 75.5127 157.775 76.1434C158.032 76.8052 158.041 77.538 157.799 78.2056L153.719 79.9936L152.169 76.3699Z" fill="white"/>
<path d="M151.079 95.7637C151.079 95.7637 156.622 85.5691 153.186 77.6244C152.166 75.2295 150.598 73.107 148.609 71.4271C146.621 69.7473 144.266 68.5569 141.734 67.9513L141.642 67.9811L151.026 95.7666L151.079 95.7637Z" fill="#263238"/>
<path d="M141.734 67.9513L135.526 69.9539L144.818 96.0915L151.079 95.7637L141.734 67.9513Z" fill="#263238"/>
<path opacity="0.8" d="M141.734 67.9513L135.526 69.9539L144.818 96.0915L151.079 95.7637L141.734 67.9513Z" fill="#FFB391"/>
<path d="M142.062 68.9287L137.038 70.5856L145.331 94.3242L150.471 93.9547L142.062 68.9287Z" fill="#FF5E16"/>
<path d="M142.062 68.9287L137.038 70.5856L145.331 94.3242L150.471 93.9547L142.062 68.9287Z" fill="#FFD3BF"/>
<path d="M156.029 111.459H154.438V140.598H156.029V111.459Z" fill="#263238"/>
<path d="M41.8262 129.089L41.3255 144.034H40.7355L40.2349 129.089H41.8262Z" fill="black"/>
<path d="M43.182 134.143L42.7618 132.969H39.7163L38.8789 134.143H43.182Z" fill="#263238"/>
<path d="M46.5912 137.97L45.8432 138.813L41.8262 143.298H41.8232H41.5192H41.4924H40.5686H40.5388H40.2349L40.5299 142.97L40.5686 142.925L41.0305 142.41L41.4924 141.894L41.5699 141.808L41.8232 141.522L45.1489 137.806L45.879 136.992H45.9714L46.5912 137.97Z" fill="#263238"/>
<path d="M35.4668 137.97L36.1939 138.783L40.2348 143.298H41.8261L41.8231 143.295L41.5311 142.967L41.4924 142.925L41.0305 142.41L40.5686 141.894L40.4911 141.805L40.2348 141.519L36.8912 137.785L36.182 136.992H36.0866L35.4668 137.97Z" fill="#263238"/>
<path d="M41.4922 140.601L41.4922 78.5601H40.5684L40.5684 140.601H41.4922Z" fill="#263238"/>
<path opacity="0.2" d="M41.4926 82.3209H40.5688V140.601H41.4926V82.3209Z" fill="white"/>
<path d="M28.4014 149.091H29.0361L36.1881 138.783L36.8854 137.785L39.4154 134.143L40.229 132.972H39.0966C38.9556 132.971 38.8168 133.006 38.6932 133.074C38.5696 133.142 38.4654 133.24 38.3903 133.359L36.0868 137.004L35.4669 137.981L28.4014 149.091Z" fill="#263238"/>
<path d="M53.6602 149.088L43.6683 133.356C43.5931 133.237 43.4888 133.139 43.3652 133.071C43.2417 133.004 43.1029 132.968 42.962 132.969H41.8267L52.9063 149.088H53.6602Z" fill="#263238"/>
<path d="M39.6602 82.3209H42.4048V78.5602H39.6602V82.3209Z" fill="#263238"/>
<path opacity="0.3" d="M39.6602 82.3209H42.4048V78.5602H39.6602V82.3209Z" fill="white"/>
<path d="M44.0911 76.3699L39.8267 74.6355C39.2333 74.9851 38.7652 75.5127 38.4887 76.1434C38.231 76.8052 38.2225 77.538 38.4648 78.2056L42.5444 79.9936L44.0911 76.3699Z" fill="#263238"/>
<path opacity="0.5" d="M44.0911 76.3699L39.8267 74.6355C39.2333 74.9851 38.7652 75.5127 38.4887 76.1434C38.231 76.8052 38.2225 77.538 38.4648 78.2056L42.5444 79.9936L44.0911 76.3699Z" fill="white"/>
<path d="M45.1849 95.7637C45.1849 95.7637 39.6421 85.5691 43.0721 77.6244C44.0926 75.2295 45.6601 73.107 47.6489 71.4271C49.6376 69.7473 51.9924 68.5569 54.5243 67.9513L54.6137 67.9811L45.2386 95.7666L45.1849 95.7637Z" fill="#263238"/>
<path d="M54.5299 67.9513L60.7372 69.9539L51.4456 96.0915L45.1846 95.7637L54.5299 67.9513Z" fill="#263238"/>
<path opacity="0.8" d="M54.5299 67.9513L60.7372 69.9539L51.4456 96.0915L45.1846 95.7637L54.5299 67.9513Z" fill="#FFB391"/>
<path d="M54.1991 68.9287L59.2263 70.5856L50.933 94.3242L45.7925 93.9547L54.1991 68.9287Z" fill="#FF5E16"/>
<path d="M54.1991 68.9287L59.2263 70.5856L50.933 94.3242L45.7925 93.9547L54.1991 68.9287Z" fill="#FFD3BF"/>
<path d="M40.2353 140.601H41.8267L41.8267 111.462H40.2353V140.601Z" fill="#263238"/>
<path d="M66.3667 89.9198C66.3661 91.5796 66.8578 93.2024 67.7795 94.5828C68.7012 95.9632 70.0116 97.0392 71.545 97.6748C73.0783 98.3104 74.7657 98.477 76.3937 98.1536C78.0217 97.8301 79.5172 97.0311 80.6911 95.8576C81.865 94.6842 82.6646 93.1889 82.9886 91.561C83.3126 89.9331 83.1466 88.2457 82.5116 86.7121C81.8765 85.1786 80.8009 83.8678 79.4209 82.9456C78.0408 82.0233 76.4182 81.5311 74.7584 81.5311C73.6565 81.5307 72.5654 81.7474 71.5473 82.1688C70.5291 82.5902 69.604 83.208 68.8247 83.987C68.0455 84.766 67.4273 85.6909 67.0055 86.7089C66.5838 87.7269 66.3667 88.8179 66.3667 89.9198ZM68.7507 89.7082C68.7507 88.5212 69.1027 87.3608 69.7622 86.3738C70.4217 85.3869 71.359 84.6176 72.4557 84.1633C73.5523 83.7091 74.7591 83.5902 75.9233 83.8218C77.0875 84.0534 78.1569 84.625 78.9963 85.4644C79.8356 86.3037 80.4072 87.3731 80.6388 88.5373C80.8704 89.7016 80.7515 90.9083 80.2973 92.005C79.843 93.1016 79.0738 94.039 78.0868 94.6985C77.0998 95.3579 75.9394 95.7099 74.7524 95.7099C73.9643 95.7092 73.184 95.5531 72.4561 95.2508C71.7283 94.9485 71.0671 94.5057 70.5103 93.9479C69.9535 93.39 69.5121 92.7279 69.2112 91.9995C68.9103 91.271 68.7559 90.4904 68.7567 89.7023L68.7507 89.7082Z" fill="#263238"/>
<g opacity="0.2">
<path opacity="0.2" d="M66.3667 89.9198C66.3661 91.5796 66.8578 93.2024 67.7795 94.5828C68.7012 95.9632 70.0116 97.0392 71.545 97.6748C73.0783 98.3104 74.7657 98.477 76.3937 98.1536C78.0217 97.8301 79.5172 97.0311 80.6911 95.8576C81.865 94.6842 82.6646 93.1889 82.9886 91.561C83.3126 89.9331 83.1466 88.2457 82.5116 86.7121C81.8765 85.1786 80.8009 83.8678 79.4209 82.9456C78.0408 82.0233 76.4182 81.5311 74.7584 81.5311C73.6565 81.5307 72.5654 81.7474 71.5473 82.1688C70.5291 82.5902 69.604 83.208 68.8247 83.987C68.0455 84.766 67.4273 85.6909 67.0055 86.7089C66.5838 87.7269 66.3667 88.8179 66.3667 89.9198ZM68.7507 89.7082C68.7507 88.5212 69.1027 87.3608 69.7622 86.3738C70.4217 85.3869 71.359 84.6176 72.4557 84.1633C73.5523 83.7091 74.7591 83.5902 75.9233 83.8218C77.0875 84.0534 78.1569 84.625 78.9963 85.4644C79.8356 86.3037 80.4072 87.3731 80.6388 88.5373C80.8704 89.7016 80.7515 90.9083 80.2973 92.005C79.843 93.1016 79.0738 94.039 78.0868 94.6985C77.0998 95.3579 75.9394 95.7099 74.7524 95.7099C73.9643 95.7092 73.184 95.5531 72.4561 95.2508C71.7283 94.9485 71.0671 94.5057 70.5103 93.9479C69.9535 93.39 69.5121 92.7279 69.2112 91.9995C68.9103 91.271 68.7559 90.4904 68.7567 89.7023L68.7507 89.7082Z" fill="white"/>
</g>
<path d="M76.2572 102.507H77.0469V101.456H76.2572V102.507Z" fill="#263238"/>
<path d="M75.3778 102.254H76.8022V101.738H75.3778V102.254Z" fill="#263238"/>
<path d="M73.3126 102.788H72.5229V103.84H73.3126V102.788Z" fill="#263238"/>
<path d="M74.192 103.071H72.7676V103.586H74.192V103.071Z" fill="#263238"/>
<path d="M76.8504 99.5572H77.6401V98.5053H76.8504V99.5572Z" fill="#263238"/>
<path d="M75.9711 99.2714H77.3955V98.7558H75.9711V99.2714Z" fill="#263238"/>
<path d="M74.4154 113.441H75.3779V101.575H74.4154V113.441Z" fill="black"/>
<path d="M74.0223 106.42H75.8223V104.82H74.0223V106.42Z" fill="#263238"/>
<path d="M74.6092 101.455H75.2261V99.5391H74.6092V101.455Z" fill="#263238"/>
<path d="M74.1716 104.12H75.6616V101.14C75.6616 100.941 75.5825 100.75 75.4416 100.609C75.3008 100.468 75.1098 100.389 74.9106 100.389C74.812 100.389 74.7144 100.408 74.6232 100.446C74.5321 100.484 74.4493 100.539 74.3796 100.609C74.3099 100.679 74.2546 100.761 74.2168 100.853C74.1791 100.944 74.1597 101.041 74.1597 101.14L74.1716 104.12Z" fill="black"/>
<path d="M73.7567 104.787H76.1079V104.119H73.7567V104.787Z" fill="#263238"/>
<path d="M73.7807 99.8283H76.0664V98.1804H73.7807V99.8283Z" fill="#263238"/>
<path d="M72.9318 109.74H77.2319V108.351H72.9318V109.74Z" fill="#263238"/>
<path opacity="0.1" d="M72.9318 109.74H77.2319V108.351H72.9318V109.74Z" fill="black"/>
<path d="M75.7717 109.525C75.7717 109.525 74.9731 107.546 74.1089 109.525L74.4546 151.048C74.4546 151.048 75.0506 151.99 75.4261 151.048L75.7717 109.525Z" fill="#263238"/>
<path d="M77.4549 108.742C77.4549 108.742 81.6745 136.158 83.7129 148.167C83.9036 149.281 82.9798 149.934 82.6699 148.533C82.5477 147.982 76.0513 109.177 76.0513 109.177C76.0513 109.177 76.3791 107.353 77.4549 108.742Z" fill="#263238"/>
<path d="M72.3892 108.742C72.3892 108.742 68.1695 136.158 66.1312 148.167C65.9404 149.281 66.8642 149.934 67.1742 148.533C67.2963 147.982 73.7927 109.177 73.7927 109.177C73.7927 109.177 73.4679 107.353 72.3892 108.742Z" fill="#263238"/>
<path d="M121.744 82.2226C122.19 82.2233 122.631 82.3156 123.04 82.4938L123.821 82.8395C124.36 83.0379 124.825 83.3969 125.153 83.8679C125.482 84.339 125.658 84.8995 125.658 85.4738C125.658 86.0481 125.482 86.6086 125.153 87.0797C124.825 87.5508 124.36 87.9097 123.821 88.1081L123.04 88.4508C122.632 88.6325 122.19 88.7269 121.744 88.728C121.309 88.7411 120.875 88.6668 120.47 88.5094C120.064 88.3521 119.694 88.1148 119.381 87.8117C119.069 87.5087 118.821 87.146 118.651 86.7451C118.481 86.3443 118.394 85.9135 118.394 85.4783C118.394 85.043 118.481 84.6122 118.651 84.2114C118.821 83.8106 119.069 83.4479 119.381 83.1448C119.694 82.8417 120.064 82.6045 120.47 82.4471C120.875 82.2897 121.309 82.2154 121.744 82.2286V82.2226Z" fill="#263238"/>
<path opacity="0.2" d="M121.744 82.2226C122.19 82.2233 122.631 82.3156 123.04 82.4938L123.821 82.8395C124.36 83.0379 124.825 83.3969 125.153 83.8679C125.482 84.339 125.658 84.8995 125.658 85.4738C125.658 86.0481 125.482 86.6086 125.153 87.0797C124.825 87.5508 124.36 87.9097 123.821 88.1081L123.04 88.4508C122.632 88.6325 122.19 88.7269 121.744 88.728C121.309 88.7411 120.875 88.6668 120.47 88.5094C120.064 88.3521 119.694 88.1148 119.381 87.8117C119.069 87.5087 118.821 87.146 118.651 86.7451C118.481 86.3443 118.394 85.9135 118.394 85.4783C118.394 85.043 118.481 84.6122 118.651 84.2114C118.821 83.8106 119.069 83.4479 119.381 83.1448C119.694 82.8417 120.064 82.6045 120.47 82.4471C120.875 82.2897 121.309 82.2154 121.744 82.2286V82.2226Z" fill="black"/>
<path d="M122.903 83.012H126.13C126.46 83.0006 126.789 83.0557 127.098 83.1741C127.406 83.2926 127.688 83.4719 127.926 83.7015C128.163 83.9311 128.352 84.2061 128.482 84.5103C128.611 84.8145 128.677 85.1416 128.677 85.472C128.677 85.8025 128.611 86.1296 128.482 86.4338C128.352 86.7379 128.163 87.013 127.926 87.2426C127.688 87.4722 127.406 87.6515 127.098 87.77C126.789 87.8884 126.46 87.9435 126.13 87.932H122.903C122.265 87.9098 121.661 87.6409 121.218 87.182C120.775 86.7231 120.527 86.11 120.527 85.472C120.527 84.834 120.775 84.221 121.218 83.7621C121.661 83.3031 122.265 83.0342 122.903 83.012Z" fill="#263238"/>
<path opacity="0.2" d="M122.903 83.012H126.13C126.46 83.0006 126.789 83.0557 127.098 83.1741C127.406 83.2926 127.688 83.4719 127.926 83.7015C128.163 83.9311 128.352 84.2061 128.482 84.5103C128.611 84.8145 128.677 85.1416 128.677 85.472C128.677 85.8025 128.611 86.1296 128.482 86.4338C128.352 86.7379 128.163 87.013 127.926 87.2426C127.688 87.4722 127.406 87.6515 127.098 87.77C126.789 87.8884 126.46 87.9435 126.13 87.932H122.903C122.265 87.9098 121.661 87.6409 121.218 87.182C120.775 86.7231 120.527 86.11 120.527 85.472C120.527 84.834 120.775 84.221 121.218 83.7621C121.661 83.3031 122.265 83.0342 122.903 83.012Z" fill="white"/>
<path opacity="0.2" d="M123.8 83.012H124.566C124.236 83.0006 123.907 83.0557 123.598 83.1741C123.29 83.2926 123.008 83.4719 122.77 83.7015C122.533 83.9311 122.344 84.2061 122.215 84.5103C122.085 84.8145 122.019 85.1416 122.019 85.472C122.019 85.8025 122.085 86.1296 122.215 86.4338C122.344 86.7379 122.533 87.013 122.77 87.2426C123.008 87.4722 123.29 87.6515 123.598 87.77C123.907 87.8884 124.236 87.9435 124.566 87.932H123.8C123.163 87.9098 122.558 87.6409 122.115 87.182C121.672 86.7231 121.424 86.11 121.424 85.472C121.424 84.834 121.672 84.221 122.115 83.7621C122.558 83.3031 123.163 83.0342 123.8 83.012Z" fill="white"/>
<path d="M125.585 80.8248H127.731C127.837 80.825 127.94 80.8573 128.027 80.9174C128.114 80.9775 128.181 81.0626 128.219 81.1616L128.723 82.4758H124.566C124.566 82.4758 125.233 80.8248 125.585 80.8248Z" fill="#263238"/>
<path opacity="0.2" d="M126.33 80.8248H127.731C127.837 80.825 127.94 80.8573 128.027 80.9174C128.115 80.9775 128.182 81.0627 128.22 81.1616L128.723 82.4758H125.338L125.842 81.1616C125.879 81.0624 125.946 80.9771 126.033 80.9169C126.121 80.8567 126.224 80.8246 126.33 80.8248Z" fill="white"/>
<path d="M129.465 88.4777H122.778C122.462 88.4777 122.159 88.3521 121.935 88.1286C121.712 87.905 121.586 87.6018 121.586 87.2857V83.0779C121.586 82.9199 121.649 82.7683 121.761 82.6565C121.872 82.5447 122.024 82.4819 122.182 82.4819H130.061C130.219 82.4819 130.371 82.5447 130.483 82.6565C130.594 82.7683 130.657 82.9199 130.657 83.0779V87.2857C130.657 87.6018 130.532 87.905 130.308 88.1286C130.085 88.3521 129.781 88.4777 129.465 88.4777Z" fill="#263238"/>
<path opacity="0.2" d="M129.465 88.4777H124.369C124.053 88.4777 123.75 88.3521 123.527 88.1286C123.303 87.905 123.177 87.6018 123.177 87.2857V83.0779C123.177 82.9199 123.24 82.7683 123.352 82.6565C123.464 82.5447 123.615 82.4819 123.773 82.4819H130.061C130.219 82.4819 130.371 82.5447 130.483 82.6565C130.594 82.7683 130.657 82.9199 130.657 83.0779V87.2857C130.657 87.6018 130.532 87.905 130.308 88.1286C130.085 88.3521 129.781 88.4777 129.465 88.4777Z" fill="white"/>
<path d="M126.431 87.2289H130.055C130.22 87.2289 130.353 87.0955 130.353 86.9309V84.0641C130.353 83.8995 130.22 83.7661 130.055 83.7661H126.431C126.267 83.7661 126.133 83.8995 126.133 84.0641V86.9309C126.133 87.0955 126.267 87.2289 126.431 87.2289Z" fill="#FF5E16"/>
<path opacity="0.5" d="M126.431 87.2289H130.055C130.22 87.2289 130.353 87.0955 130.353 86.9309V84.0641C130.353 83.8995 130.22 83.7661 130.055 83.7661H126.431C126.267 83.7661 126.133 83.8995 126.133 84.0641V86.9309C126.133 87.0955 126.267 87.2289 126.431 87.2289Z" fill="white"/>
<path d="M126.625 82.3746H127.632C127.797 82.3746 127.93 82.2412 127.93 82.0766V81.7071C127.93 81.5425 127.797 81.4091 127.632 81.4091H126.625C126.46 81.4091 126.327 81.5425 126.327 81.7071V82.0766C126.327 82.2412 126.46 82.3746 126.625 82.3746Z" fill="#FF5E16"/>
<path opacity="0.5" d="M126.625 82.3746H127.632C127.797 82.3746 127.93 82.2412 127.93 82.0766V81.7071C127.93 81.5425 127.797 81.4091 127.632 81.4091H126.625C126.46 81.4091 126.327 81.5425 126.327 81.7071V82.0766C126.327 82.2412 126.46 82.3746 126.625 82.3746Z" fill="white"/>
<path opacity="0.2" d="M125.665 84.8269H126.133V84.359H125.665V84.8269Z" fill="white"/>
<path opacity="0.2" d="M125.665 85.3872H126.133V84.9193H125.665V85.3872Z" fill="white"/>
<path opacity="0.2" d="M125.665 85.9475H126.133V85.4797H125.665V85.9475Z" fill="white"/>
<path opacity="0.2" d="M125.665 86.5079H126.133V86.04H125.665V86.5079Z" fill="white"/>
<path d="M123.532 85.4229C123.532 85.6198 123.59 85.8122 123.699 85.9759C123.809 86.1396 123.964 86.2672 124.146 86.3425C124.328 86.4178 124.528 86.4375 124.721 86.3991C124.914 86.3607 125.092 86.2659 125.231 86.1267C125.37 85.9875 125.465 85.8102 125.503 85.6171C125.542 85.424 125.522 85.2239 125.447 85.042C125.371 84.8602 125.244 84.7047 125.08 84.5954C124.916 84.486 124.724 84.4276 124.527 84.4276C124.263 84.4276 124.01 84.5325 123.823 84.7191C123.637 84.9058 123.532 85.159 123.532 85.4229ZM123.949 85.4229C123.948 85.3085 123.982 85.1964 124.045 85.1009C124.108 85.0055 124.198 84.9309 124.304 84.8867C124.409 84.8425 124.526 84.8306 124.638 84.8526C124.75 84.8745 124.854 84.9294 124.935 85.0101C125.016 85.0908 125.071 85.1938 125.094 85.3061C125.116 85.4183 125.105 85.5347 125.061 85.6405C125.018 85.7463 124.944 85.8368 124.849 85.9004C124.753 85.9641 124.642 85.9981 124.527 85.9981C124.451 85.9997 124.374 85.986 124.303 85.9578C124.232 85.9296 124.167 85.8875 124.113 85.8339C124.058 85.7803 124.015 85.7164 123.985 85.6458C123.955 85.5752 123.94 85.4995 123.94 85.4229H123.949Z" fill="#263238"/>
<path d="M124.143 85.4229C124.143 85.5209 124.182 85.6149 124.251 85.6842C124.321 85.7535 124.415 85.7924 124.513 85.7924C124.611 85.7924 124.705 85.7535 124.774 85.6842C124.843 85.6149 124.882 85.5209 124.882 85.4229C124.882 85.3249 124.843 85.2309 124.774 85.1616C124.705 85.0923 124.611 85.0533 124.513 85.0533C124.415 85.0533 124.321 85.0923 124.251 85.1616C124.182 85.2309 124.143 85.3249 124.143 85.4229Z" fill="#263238"/>
<path d="M125.755 83.0122C125.755 83.0509 125.77 83.0881 125.798 83.1155C125.825 83.1429 125.862 83.1582 125.901 83.1582C125.92 83.1582 125.939 83.1544 125.956 83.1471C125.974 83.1397 125.99 83.1289 126.003 83.1153C126.016 83.1017 126.027 83.0856 126.034 83.0679C126.041 83.0502 126.044 83.0312 126.044 83.0122C126.044 82.9933 126.041 82.9745 126.034 82.957C126.027 82.9395 126.016 82.9235 126.003 82.9102C125.99 82.8968 125.974 82.8863 125.956 82.8792C125.939 82.8722 125.92 82.8688 125.901 82.8692C125.882 82.8688 125.863 82.8722 125.845 82.8792C125.828 82.8862 125.811 82.8967 125.798 82.91C125.784 82.9233 125.773 82.9392 125.766 82.9568C125.759 82.9743 125.755 82.9932 125.755 83.0122Z" fill="#FF5E16"/>
<path d="M127.835 93.3082H128.717V92.1311H127.835V93.3082Z" fill="#263238"/>
<path d="M126.849 93.025H128.443V92.4468H126.849V93.025Z" fill="#263238"/>
<path d="M124.539 93.6208H123.657V94.7979H124.539V93.6208Z" fill="#263238"/>
<path d="M125.523 93.9399H123.928V94.5181H125.523V93.9399Z" fill="#263238"/>
<path d="M128.497 90.0063H129.379V88.8292H128.497V90.0063Z" fill="#263238"/>
<path d="M127.513 89.6902H129.107V89.1121H127.513V89.6902Z" fill="#263238"/>
<path d="M125.773 104.549H126.849V95.856H125.773V104.549Z" fill="black"/>
<path d="M123.907 104.799H128.714V103.246H123.907V104.799Z" fill="#263238"/>
<path opacity="0.1" d="M123.907 104.799H128.714V103.246H123.907V104.799Z" fill="black"/>
<path d="M127.084 104.555C127.084 104.555 126.19 102.344 125.224 104.555L125.617 151.01C125.617 151.01 126.297 152.065 126.702 151.01L127.084 104.555Z" fill="#263238"/>
<path d="M128.967 103.682C128.967 103.682 133.688 134.349 135.979 147.786C136.191 149.034 135.157 149.761 134.808 148.194C134.674 147.571 127.406 104.167 127.406 104.167C127.406 104.167 127.763 102.138 128.967 103.682Z" fill="#263238"/>
<path d="M123.302 103.681C123.302 103.681 118.579 134.349 116.291 147.785C116.079 149.034 117.11 149.761 117.459 148.194C117.596 147.58 124.861 104.176 124.861 104.176C124.861 104.176 124.503 102.138 123.302 103.681Z" fill="#263238"/>
<path d="M125.335 101.294H127.346V99.5065H125.335V101.294Z" fill="#263238"/>
<path d="M125.335 98.5768H127.346V96.7888H125.335V98.5768Z" fill="#263238"/>
<path d="M125.993 92.1338H126.682V89.9912H125.993V92.1338Z" fill="#263238"/>
<path d="M125.499 95.1111H127.18V91.7794C127.18 91.5565 127.091 91.3428 126.934 91.1852C126.776 91.0276 126.562 90.9391 126.339 90.9391C126.117 90.9391 125.903 91.0276 125.745 91.1852C125.588 91.3428 125.499 91.5565 125.499 91.7794V95.1111Z" fill="black"/>
<path d="M125.034 95.8591H127.666V95.1141H125.034V95.8591Z" fill="#263238"/>
<path d="M125.063 90.3133H127.62V88.4687H125.063V90.3133Z" fill="#263238"/>
<path d="M102.836 47.1299L102.833 47.1421H102.83L102.836 47.1299Z" fill="black"/>
<path d="M100.426 44.5585L100.419 44.569L100.422 44.5585H100.426Z" fill="black"/>
</svg>
