<svg width="316" height="288" viewBox="0 0 316 288" fill="none" xmlns="http://www.w3.org/2000/svg">
<g opacity="0.1">
<path fill-rule="evenodd" clip-rule="evenodd" d="M-405.339 438.142C-444.195 279.33 -346.964 119.109 -188.152 80.2535C-29.3397 41.3977 130.881 138.629 169.742 297.462C208.597 456.274 111.366 616.494 -47.4457 655.35C-48.2252 655.541 -49.0045 655.703 -49.7849 655.865C-50.3717 655.987 -50.9591 656.109 -51.5475 656.244C-51.721 656.298 -51.8928 656.352 -52.064 656.407C-52.5563 656.564 -53.0433 656.719 -53.55 656.843L-277.232 711.571C-297.552 716.542 -318.258 703.976 -323.23 683.656L-324.02 680.429C-326.607 669.855 -324.43 659.212 -318.9 650.71L-318.941 650.72L-290.415 608.3L-289.57 608.795C-345.372 569.047 -387.777 509.923 -405.339 438.142ZM-227.439 378L-10.2569 363.451C-3.49785 362.998 3.42932 365.374 8.76855 369.543C13.5764 373.747 16.2595 380.335 16.1597 387.131C16.009 452.131 -39.1141 506.68 -109.446 511.391C-179.757 516.101 -241.626 469.945 -250.466 405.547C-250.919 398.788 -249.08 392.452 -244.913 387.091C-240.747 381.71 -234.198 378.453 -227.439 378Z" fill="#FF6D2C"/>
<path d="M140.499 27.2589L115.433 85.9725L200.806 199.38L264.206 191.504C281.119 189.407 286.616 176.531 276.377 162.914L171.415 23.4873C161.089 9.85975 147.239 11.5575 140.499 27.2589Z" fill="#FF6D2C"/>
</g>
</svg>
