<svg width="526" height="186" viewBox="0 0 526 186" fill="none" xmlns="http://www.w3.org/2000/svg">
<path fill-rule="evenodd" clip-rule="evenodd" d="M9.37576 -406.138C-49.6552 -743.82 176.206 -1065.38 513.888 -1124.41C851.569 -1183.44 1173.13 -957.577 1232.16 -619.852C1291.2 -282.17 1065.33 39.3865 727.653 98.4174C725.995 98.7072 724.342 98.9371 722.686 99.1675C721.442 99.3406 720.196 99.5138 718.947 99.7128C718.576 99.8009 718.209 99.8915 717.843 99.9817C716.791 100.241 715.751 100.498 714.673 100.686L239.059 183.83C195.854 191.382 154.296 162.193 146.743 118.987L145.543 112.123C141.613 89.6406 147.659 67.6808 160.418 50.6687L160.33 50.6841L225.953 -34.0604L227.651 -32.9064C116.484 -123.881 36.057 -253.511 9.37576 -406.138ZM389.974 -507.025H846.358C860.562 -507.025 874.721 -501.085 885.306 -491.616C894.775 -482.147 899.465 -467.988 898.304 -453.785C888.879 -317.825 765.917 -211.433 618.121 -211.433C470.37 -211.433 347.408 -316.664 337.939 -452.623C337.939 -466.827 342.674 -479.824 352.143 -490.454C361.612 -501.129 375.77 -507.025 389.974 -507.025Z" fill="#FF6D2C"/>
</svg>
